<?xml version="1.0" encoding="UTF-8" standalone="no"?>
<svg
   xmlns:dc="http://purl.org/dc/elements/1.1/"
   xmlns:cc="http://creativecommons.org/ns#"
   xmlns:rdf="http://www.w3.org/1999/02/22-rdf-syntax-ns#"
   xmlns:svg="http://www.w3.org/2000/svg"
   xmlns="http://www.w3.org/2000/svg"
   xmlns:sodipodi="http://sodipodi.sourceforge.net/DTD/sodipodi-0.dtd"
   xmlns:inkscape="http://www.inkscape.org/namespaces/inkscape"
   version="1.1"
   id="svg917"
   width="440"
   height="440"
   viewBox="0 0 440 440"
   sodipodi:docname="head.svg"
   inkscape:export-filename="/media/klang/Shared/Code/OpenGL Course Reference/Assignment 2 - Futurama/textures/head.png"
   inkscape:export-xdpi="96"
   inkscape:export-ydpi="96"
   inkscape:version="1.0.2 (e86c870879, 2021-01-15)">
  <metadata
     id="metadata1255">
    <rdf:RDF>
      <cc:Work
         rdf:about="">
        <dc:format>image/svg+xml</dc:format>
        <dc:type
           rdf:resource="http://purl.org/dc/dcmitype/StillImage" />
        <dc:title></dc:title>
      </cc:Work>
    </rdf:RDF>
  </metadata>
  <defs
     id="defs921" />
  <sodipodi:namedview
     id="namedview919"
     pagecolor="#ffffff"
     bordercolor="#666666"
     borderopacity="1.0"
     inkscape:pageshadow="2"
     inkscape:pageopacity="0.0"
     inkscape:pagecheckerboard="0"
     showgrid="false"
     fit-margin-top="0"
     fit-margin-left="0"
     fit-margin-right="0"
     fit-margin-bottom="0"
     inkscape:zoom="2"
     inkscape:cx="267.58388"
     inkscape:cy="331.91508"
     inkscape:window-width="1280"
     inkscape:window-height="747"
     inkscape:window-x="26"
     inkscape:window-y="23"
     inkscape:window-maximized="0"
     inkscape:current-layer="g923"
     inkscape:document-rotation="0" />
  <g
     inkscape:groupmode="layer"
     inkscape:label="Image"
     id="g923">
    <path
       style="fill:#fffabd;fill-opacity:1;stroke:#000000;stroke-width:3.5;stroke-linecap:butt;stroke-linejoin:miter;stroke-miterlimit:4;stroke-dasharray:none;stroke-opacity:1"
       d="m 167.46711,268.97514 c 8.3054,1.33527 15.25327,7.30503 23.36197,9.54371 8.30463,2.29277 16.93949,4.09941 25.55216,3.88591 8.60606,-0.21333 17.10954,-2.5199 25.30881,-5.14321 7.6958,-2.46222 14.1879,-8.45474 22.1452,-9.85802 2.96295,-0.52252 6.35328,-1.20152 9.00409,0.62864 2.80894,1.93933 4.6255,6.01801 5.7294,9.87691 2.4521,8.57181 2.1189,18.26942 1.37534,27.35703 -0.46063,5.62974 -1.24027,11.55284 -3.5759,16.34316 -2.7349,5.60921 -6.93519,9.58087 -11.55293,13.14559 -6.82102,5.26556 -14.82554,9.20759 -23.10585,11.59272 -8.32033,2.39666 -17.19797,2.5151 -25.85655,2.48699 -8.11114,-0.0263 -16.36003,-0.43029 -24.20613,-2.48699 -8.22144,-2.15509 -16.39543,-5.33017 -23.38093,-10.17159 -4.33455,-3.00414 -8.27553,-6.43013 -11.00278,-11.36915 -3.16592,-5.73345 -4.68777,-12.93261 -5.5014,-19.89603 -0.94499,-8.0877 -0.6803,-16.56994 0.82521,-24.51473 0.72166,-3.80828 1.33514,-8.46486 3.85098,-10.65858 3.05143,-2.66076 7.39082,-1.34732 11.02931,-0.76236 z"
       id="path1050"
       sodipodi:nodetypes="aaaaaaaaaaaaaaaaaaa" />
    <path
       style="fill:none;stroke:#000000;stroke-width:3.5;stroke-linecap:butt;stroke-linejoin:miter;stroke-miterlimit:4;stroke-dasharray:none;stroke-opacity:1"
       d="m 167.46711,268.97514 1.07375,67.20085"
       id="path1497"
       sodipodi:nodetypes="cc" />
    <path
       style="fill:none;stroke:#000000;stroke-width:3.5;stroke-linecap:butt;stroke-linejoin:miter;stroke-miterlimit:4;stroke-dasharray:none;stroke-opacity:1"
       d="m 190.54644,278.48793 1.10028,68.21493"
       id="path1499" />
    <path
       style="fill:none;stroke:#000000;stroke-width:3.5;stroke-linecap:butt;stroke-linejoin:miter;stroke-miterlimit:4;stroke-dasharray:none;stroke-opacity:1"
       d="M 215.85285,282.26437 V 350.124"
       id="path1501" />
    <path
       style="fill:none;stroke:#000000;stroke-width:3.5;stroke-linecap:butt;stroke-linejoin:miter;stroke-miterlimit:4;stroke-dasharray:none;stroke-opacity:1"
       d="m 241.15926,277.06679 0.82521,68.9255"
       id="path1503" />
    <path
       style="fill:none;stroke:#000000;stroke-width:3.5;stroke-linecap:butt;stroke-linejoin:miter;stroke-miterlimit:4;stroke-dasharray:none;stroke-opacity:1"
       d="m 263.71497,267.60578 0.55014,67.85964"
       id="path1505" />
    <path
       style="fill:none;stroke:#000000;stroke-width:3.5;stroke-linecap:butt;stroke-linejoin:miter;stroke-miterlimit:4;stroke-dasharray:none;stroke-opacity:1"
       d="m 152.03668,282.97932 c 0,0 10.21424,4.86028 15.4039,7.10573 7.71622,3.33864 15.31442,7.09078 23.38093,9.461 8.32657,2.44663 16.90343,4.93831 25.58148,4.8423 8.34178,-0.0923 16.54722,-2.61964 24.4812,-5.19758 7.9236,-2.57456 15.35503,-6.49396 22.83078,-10.17158 5.14293,-2.53001 15.12884,-8.17157 15.12884,-8.17157"
       id="path1951"
       sodipodi:nodetypes="caaaaac" />
    <path
       style="fill:none;stroke:#000000;stroke-width:3.5;stroke-linecap:butt;stroke-linejoin:miter;stroke-miterlimit:4;stroke-dasharray:none;stroke-opacity:1"
       d="m 152.03668,306.22852 c 0,0 10.21424,4.86028 15.4039,7.10573 7.71622,3.33864 15.22976,7.40067 23.38093,9.461 8.31803,2.10251 17.00224,2.92477 25.58148,2.8423 8.22933,-0.0791 16.5596,-0.96679 24.4812,-3.19759 8.01945,-2.25835 15.35503,-6.49395 22.83078,-10.17157 5.14293,-2.53002 15.12884,-8.17158 15.12884,-8.17158"
       id="path2213"
       sodipodi:nodetypes="caaaaac" />
  </g>
</svg>
